# xmcd
#
# Track frame offsets:
# 150
# 16850
# 37205
# 54973
# 75303
# 96173
# 113413
# 134018
# 147720
# 164188
#
# Disc length: 2491 seconds
#
# Revision: 0
# Processed by: cddbd v1.5.2PL0 Copyright (c) Steve Scherf et al.
# Submitted via: Audion 3.0.2 (http://www.panic.com/audion/)
#
DISCID=8709b90a
DTITLE=Cocteau Twins - Four-Calendar Cafe
DYEAR=1900
DGENRE=
TTITLE0=Know Who You Are At Every Age
TTITLE1=Evangeline
TTITLE2=Bluebeard
TTITLE3=Theft, And Wandering Around Lost
TTITLE4=Oil Of Angels
TTITLE5=Squeeze-Wax
TTITLE6=My Truth
TTITLE7=Essence
TTITLE8=Summerhead
TTITLE9=Pur
EXTD=
EXTT0=
EXTT1=
EXTT2=
EXTT3=
EXTT4=
EXTT5=
EXTT6=
EXTT7=
EXTT8=
EXTT9=
PLAYORDER=
